<?xml version="1.0" encoding="UTF-8"?>
<!DOCTYPE svg PUBLIC "-//W3C//DTD SVG 1.1//EN" "http://www.w3.org/Graphics/SVG/1.1/DTD/svg11.dtd">
<!-- Creator: CorelDRAW 2021.5 -->
<svg xmlns="http://www.w3.org/2000/svg" xml:space="preserve" width="132px" height="150px" version="1.1" style="shape-rendering:geometricPrecision; text-rendering:geometricPrecision; image-rendering:optimizeQuality; fill-rule:evenodd; clip-rule:evenodd"
viewBox="0 0 129.2 146.35"
 xmlns:xlink="http://www.w3.org/1999/xlink"
 xmlns:xodm="http://www.corel.com/coreldraw/odm/2003">
 <defs>
  <style type="text/css">
   <![CDATA[
    .fil0 {fill:white}
    .fil10 {fill:#FFCC2A}
    .fil11 {fill:#F58735}
    .fil1 {fill:#DAAA3A}
    .fil12 {fill:#373535;fill-rule:nonzero}
    .fil8 {fill:url(#id0)}
    .fil4 {fill:url(#id1)}
    .fil2 {fill:url(#id2)}
    .fil7 {fill:url(#id3)}
    .fil6 {fill:url(#id4)}
    .fil5 {fill:url(#id5)}
    .fil3 {fill:url(#id6)}
    .fil9 {fill:url(#id7)}
   ]]>
  </style>
  <linearGradient id="id0" gradientUnits="userSpaceOnUse" x1="47.53" y1="20.1" x2="29.84" y2="22.21">
   <stop offset="0" style="stop-opacity:1; stop-color:#F6CD47"/>
   <stop offset="0.501961" style="stop-opacity:1; stop-color:#F6CD47"/>
   <stop offset="1" style="stop-opacity:1; stop-color:#E5883C"/>
  </linearGradient>
  <linearGradient id="id1" gradientUnits="userSpaceOnUse" x1="60.69" y1="5.72" x2="60.69" y2="78.83">
   <stop offset="0" style="stop-opacity:1; stop-color:#FF8787"/>
   <stop offset="0.490196" style="stop-opacity:1; stop-color:#B90000"/>
   <stop offset="1" style="stop-opacity:1; stop-color:#420000"/>
  </linearGradient>
  <linearGradient id="id2" gradientUnits="userSpaceOnUse" xlink:href="#id0" x1="73.61" y1="72.99" x2="94.29" y2="11.44">
  </linearGradient>
  <linearGradient id="id3" gradientUnits="userSpaceOnUse" x1="58.13" y1="14.08" x2="58.13" y2="5.8">
   <stop offset="0" style="stop-opacity:1; stop-color:#FF8787"/>
   <stop offset="0.490196" style="stop-opacity:1; stop-color:#B90000"/>
   <stop offset="1" style="stop-opacity:1; stop-color:#A30000"/>
  </linearGradient>
  <linearGradient id="id4" gradientUnits="userSpaceOnUse" x1="70.34" y1="10.82" x2="70.34" y2="91.74">
   <stop offset="0" style="stop-opacity:1; stop-color:#FF8787"/>
   <stop offset="0.490196" style="stop-opacity:1; stop-color:#B90000"/>
   <stop offset="1" style="stop-opacity:1; stop-color:#610000"/>
  </linearGradient>
  <linearGradient id="id5" gradientUnits="userSpaceOnUse" x1="70.3" y1="-4.85" x2="70.3" y2="78.88">
   <stop offset="0" style="stop-opacity:1; stop-color:#FF8787"/>
   <stop offset="0.490196" style="stop-opacity:1; stop-color:#9E0000"/>
   <stop offset="1" style="stop-opacity:1; stop-color:#780000"/>
  </linearGradient>
  <linearGradient id="id6" gradientUnits="userSpaceOnUse" xlink:href="#id0" x1="55.02" y1="12.79" x2="55.02" y2="83.75">
  </linearGradient>
  <linearGradient id="id7" gradientUnits="userSpaceOnUse" xlink:href="#id0" x1="52.11" y1="15" x2="91.18" y2="15.58">
  </linearGradient>
 </defs>
 <g id="Layer_x0020_1">
  <metadata id="CorelCorpID_0Corel-Layer"/>
  <rect class="fil0" width="129.2" height="146.35"/>
  <g id="_105553475576544">
   <g>
    <path class="fil1" d="M35.52 25.86c-2.08,1.69 -2.85,3.86 -2.34,6.52 -0.56,-4.05 4.24,-5.94 7.45,-7.19 -0.07,-0.68 -0.12,-1.38 -0.17,-2.05 -1.81,0.7 -3.59,1.62 -4.94,2.72z"/>
    <path class="fil1" d="M65.62 69.86c0.87,0.72 1.73,1.42 2.6,2.1 2.51,1.88 5.65,2.24 8.18,0.5 -2.97,1.76 -6.66,-1.35 -9.05,-3.73 -0.58,0.38 -1.13,0.77 -1.73,1.13z"/>
    <path class="fil2" d="M67.35 68.73c2.39,2.38 6.08,5.49 9.05,3.73 13.87,-13.31 23.03,-33.31 23.76,-49.97 0.04,-1.23 -0.05,-2.24 -0.37,-3.11 -3.01,19.97 -16.33,38.61 -32.44,49.35z"/>
    <path class="fil3" d="M33.18 32.38c3.64,16.81 14.35,34.9 28.89,45.53 2.65,1.93 5.21,1.93 7.86,0 1.09,-0.79 2.15,-1.64 3.19,-2.5 1.13,-0.94 2.22,-1.93 3.28,-2.95 -2.53,1.74 -5.67,1.38 -8.18,-0.5 -0.87,-0.68 -1.73,-1.38 -2.6,-2.1 -12.52,-10.66 -23.11,-27.06 -24.99,-44.67 -3.21,1.25 -8.01,3.14 -7.45,7.19z"/>
    <path class="fil4" d="M54.4 8.21c-1.3,3.21 -1.04,8.73 -0.8,11.82 0.87,11.62 5.36,22.5 14.07,31.18 -8.08,-8.24 -12.01,-19.92 -12.88,-31.25 -0.24,-2.99 -0.29,-6.15 0.05,-8.62 0.19,-1.32 0.48,-2.43 0.91,-3.23 0.68,-1.23 2.2,-1.93 3.47,-1.11 -0.61,-0.46 -1.32,-0.68 -2,-0.68 -1.19,0 -2.32,0.66 -2.82,1.89z"/>
    <path class="fil5" d="M48.39 6.79c-1.47,0.53 -2.31,1.49 -2.72,3.52 -0.15,0.75 -0.27,1.59 -0.34,2.51 -0.31,19.87 9.67,37.79 21.83,47.63 11.99,-8.42 24.67,-24.41 28.2,-38.93 0.72,-3.66 -0.99,-6.63 -4.66,-7.71 -2.36,-0.68 -4.99,-1.26 -7.79,-1.72 2.94,0.53 3.84,3.21 3.38,5.98 -0.2,1.09 -0.41,2.18 -0.68,3.26 -2.68,11.12 -9.31,22.79 -17.94,29.88 -8.71,-8.68 -13.2,-19.56 -14.07,-31.18 -0.24,-3.09 -0.5,-8.61 0.8,-11.82 0.8,-1.95 3.16,-2.46 4.82,-1.21 -0.79,-0.65 -1.78,-1.08 -2.89,-1.2 -0.23,-0.02 -0.5,-0.04 -0.81,-0.04 -2.04,0 -5.55,0.46 -7.13,1.03z"/>
    <path class="fil6" d="M45.38 21.57c1.18,15.58 9.17,32.9 21.49,42.62 13.41,-9.07 25.09,-25.9 28.49,-42.67 -3.53,14.52 -16.21,30.51 -28.2,38.93 -12.16,-9.84 -22.14,-27.76 -21.83,-47.63 -0.24,2.58 -0.19,5.71 0.05,8.75z"/>
    <path class="fil7" d="M55.75 8.11c-0.43,0.8 -0.72,1.91 -0.91,3.23 2.14,-0.21 4.34,-0.36 6.58,-0.45 -0.27,-1.57 -1.06,-2.97 -2.2,-3.89 -0.38,-0.24 -0.78,-0.35 -1.18,-0.35 -0.93,0 -1.82,0.6 -2.29,1.46z"/>
    <path class="fil8" d="M35.85 15.86c-3.04,1.47 -4.17,3.16 -4,6.63 0.14,3.21 0.58,6.51 1.33,9.89 -0.51,-2.66 0.26,-4.83 2.34,-6.52 1.35,-1.1 3.13,-2.02 4.94,-2.72 1.57,-0.63 3.16,-1.11 4.41,-1.45 0.17,-0.05 0.34,-0.07 0.51,-0.12 -0.24,-3.04 -0.29,-6.17 -0.05,-8.75 -3.64,0.77 -6.85,1.81 -9.48,3.04z"/>
    <path class="fil9" d="M61.42 10.89c-1.54,0.07 -3.06,0.14 -4.56,0.26 -0.46,2.78 -0.34,5.82 -0.12,8.61 9.75,-0.84 20.77,-0.31 28.87,1.57 0.27,-1.08 0.48,-2.17 0.68,-3.26 0.46,-2.77 -0.44,-5.45 -3.38,-5.98 -5.29,-0.86 -11.18,-1.28 -17.05,-1.28 -1.48,0 -2.97,0.02 -4.44,0.08z"/>
    <path class="fil10" d="M54.84 11.34c-0.34,2.47 -0.29,5.63 -0.05,8.62 0.65,-0.08 1.3,-0.15 1.95,-0.2 -0.22,-2.79 -0.34,-5.83 0.12,-8.61 -0.67,0.07 -1.35,0.12 -2.02,0.19z"/>
    <path class="fil11" d="M83.71 20.92c0.65,0.12 1.27,0.27 1.9,0.41 0.27,-1.08 0.48,-2.17 0.68,-3.26 0.46,-2.77 -0.44,-5.45 -3.38,-5.98 2.39,2.05 1.83,5.74 0.8,8.83z"/>
   </g>
   <path class="fil12" d="M14.02 97.78c0,-2.21 0.44,-4.18 1.32,-5.89 0.88,-1.71 2.08,-3.03 3.6,-3.95 1.51,-0.93 3.21,-1.39 5.08,-1.39 1.63,0 3.06,0.33 4.29,0.99 1.23,0.66 2.21,1.49 2.95,2.49l0 -3.12 5.57 0 0 21.9 -5.57 0 0 -3.2c-0.72,1.03 -1.7,1.88 -2.95,2.55 -1.25,0.67 -2.7,1.01 -4.33,1.01 -1.84,0 -3.53,-0.47 -5.04,-1.42 -1.52,-0.95 -2.72,-2.29 -3.6,-4.02 -0.88,-1.72 -1.32,-3.71 -1.32,-5.95zm17.24 0.08c0,-1.34 -0.27,-2.5 -0.79,-3.46 -0.53,-0.96 -1.24,-1.7 -2.14,-2.21 -0.9,-0.52 -1.86,-0.77 -2.89,-0.77 -1.02,0 -1.97,0.25 -2.84,0.75 -0.87,0.5 -1.58,1.23 -2.12,2.19 -0.54,0.96 -0.81,2.1 -0.81,3.42 0,1.32 0.27,2.47 0.81,3.46 0.54,0.99 1.25,1.75 2.14,2.28 0.88,0.52 1.82,0.79 2.82,0.79 1.03,0 1.99,-0.26 2.89,-0.77 0.9,-0.52 1.61,-1.26 2.14,-2.22 0.52,-0.96 0.79,-2.11 0.79,-3.46zm14.13 -18.31l0 29.26 -5.54 0 0 -33.16 5.54 3.9zm8.59 10.52c0.71,-1 1.69,-1.84 2.95,-2.51 1.25,-0.67 2.68,-1.01 4.29,-1.01 1.87,0 3.56,0.46 5.08,1.39 1.51,0.92 2.71,2.23 3.59,3.93 0.89,1.7 1.33,3.67 1.33,5.91 0,2.24 -0.44,4.23 -1.33,5.95 -0.88,1.73 -2.08,3.07 -3.59,4.02 -1.52,0.95 -3.21,1.42 -5.08,1.42 -1.61,0 -3.03,-0.33 -4.26,-0.99 -1.22,-0.66 -2.22,-1.49 -2.98,-2.49l0 13.56 -5.54 0 0 -32.34 5.54 0 0 3.16zm11.58 7.71c0,-1.32 -0.27,-2.46 -0.81,-3.42 -0.54,-0.96 -1.25,-1.69 -2.13,-2.19 -0.88,-0.5 -1.84,-0.75 -2.87,-0.75 -1,0 -1.94,0.25 -2.82,0.77 -0.89,0.51 -1.6,1.26 -2.14,2.23 -0.54,0.98 -0.81,2.12 -0.81,3.44 0,1.32 0.27,2.47 0.81,3.44 0.54,0.98 1.25,1.72 2.14,2.24 0.88,0.51 1.82,0.77 2.82,0.77 1.03,0 1.99,-0.27 2.87,-0.79 0.88,-0.53 1.59,-1.28 2.13,-2.26 0.54,-0.97 0.81,-2.13 0.81,-3.48zm19.63 -11.19c1.66,0 3.14,0.37 4.43,1.09 1.29,0.73 2.3,1.79 3.02,3.2 0.73,1.41 1.09,3.11 1.09,5.08l0 12.85 -5.53 0 0 -12.09c0,-1.74 -0.44,-3.08 -1.31,-4.02 -0.87,-0.93 -2.05,-1.4 -3.56,-1.4 -1.53,0 -2.73,0.47 -3.62,1.4 -0.88,0.94 -1.32,2.28 -1.32,4.02l0 15.78 -5.54 -3.69 0 -29.26 5.54 0 0 10.09c0.71,-0.95 1.66,-1.7 2.85,-2.24 1.18,-0.54 2.5,-0.81 3.95,-0.81zm9.98 11.19c0,-2.21 0.44,-4.18 1.32,-5.89 0.89,-1.71 2.09,-3.03 3.6,-3.95 1.52,-0.93 3.21,-1.39 5.08,-1.39 1.64,0 3.07,0.33 4.29,0.99 1.23,0.66 2.21,1.49 2.95,2.49l0 -3.12 5.57 -3.69 0 25.59 -5.57 0 0 -3.2c-0.71,1.03 -1.7,1.88 -2.95,2.55 -1.25,0.67 -2.69,1.01 -4.33,1.01 -1.84,0 -3.52,-0.47 -5.04,-1.42 -1.51,-0.95 -2.71,-2.29 -3.6,-4.02 -0.88,-1.72 -1.32,-3.71 -1.32,-5.95zm17.24 0.08c0,-1.34 -0.27,-2.5 -0.79,-3.46 -0.53,-0.96 -1.24,-1.7 -2.14,-2.21 -0.89,-0.52 -1.86,-0.77 -2.88,-0.77 -1.03,0 -1.98,0.25 -2.85,0.75 -0.87,0.5 -1.58,1.23 -2.12,2.19 -0.54,0.96 -0.81,2.1 -0.81,3.42 0,1.32 0.27,2.47 0.81,3.46 0.54,0.99 1.26,1.75 2.14,2.28 0.88,0.52 1.82,0.79 2.83,0.79 1.02,0 1.99,-0.26 2.88,-0.77 0.9,-0.52 1.61,-1.26 2.14,-2.22 0.52,-0.96 0.79,-2.11 0.79,-3.46z"/>
   <path class="fil12" d="M26.78 126.28c-0.35,0 -0.65,-0.06 -0.91,-0.18 -0.26,-0.11 -0.46,-0.28 -0.61,-0.49 -0.15,-0.22 -0.23,-0.45 -0.24,-0.72l0.55 0c0.03,0.26 0.14,0.48 0.34,0.67 0.19,0.19 0.48,0.28 0.87,0.28 0.35,0 0.63,-0.09 0.83,-0.27 0.21,-0.18 0.31,-0.41 0.31,-0.68 0,-0.23 -0.06,-0.41 -0.17,-0.54 -0.11,-0.14 -0.26,-0.24 -0.42,-0.31 -0.17,-0.07 -0.41,-0.14 -0.7,-0.22 -0.35,-0.09 -0.62,-0.18 -0.83,-0.27 -0.2,-0.09 -0.37,-0.23 -0.52,-0.42 -0.14,-0.19 -0.21,-0.44 -0.21,-0.76 0,-0.27 0.07,-0.51 0.2,-0.72 0.14,-0.21 0.34,-0.38 0.59,-0.5 0.25,-0.11 0.54,-0.17 0.87,-0.17 0.48,0 0.87,0.11 1.16,0.35 0.3,0.23 0.47,0.54 0.51,0.91l-0.56 0c-0.04,-0.21 -0.15,-0.4 -0.35,-0.57 -0.2,-0.17 -0.47,-0.25 -0.8,-0.25 -0.32,0 -0.58,0.08 -0.78,0.25 -0.21,0.17 -0.32,0.39 -0.32,0.68 0,0.22 0.06,0.39 0.17,0.53 0.12,0.13 0.26,0.23 0.43,0.3 0.17,0.07 0.41,0.15 0.7,0.23 0.33,0.09 0.61,0.18 0.82,0.28 0.2,0.09 0.38,0.23 0.52,0.41 0.15,0.19 0.22,0.45 0.22,0.76 0,0.25 -0.07,0.48 -0.2,0.69 -0.12,0.22 -0.31,0.4 -0.57,0.53 -0.25,0.14 -0.55,0.2 -0.9,0.2zm2.43 -2.09c0,-0.41 0.09,-0.78 0.25,-1.09 0.17,-0.32 0.4,-0.56 0.69,-0.73 0.3,-0.17 0.63,-0.26 1,-0.26 0.39,0 0.72,0.09 1,0.27 0.28,0.18 0.49,0.41 0.61,0.68l0 -0.89 0.52 0 0 4.06 -0.52 0 0 -0.9c-0.13,0.28 -0.33,0.51 -0.61,0.69 -0.28,0.18 -0.62,0.27 -1,0.27 -0.37,0 -0.7,-0.09 -1,-0.26 -0.29,-0.17 -0.52,-0.42 -0.69,-0.74 -0.16,-0.31 -0.25,-0.68 -0.25,-1.1zm3.55 0.01c0,-0.33 -0.07,-0.61 -0.2,-0.86 -0.13,-0.25 -0.32,-0.44 -0.55,-0.57 -0.23,-0.14 -0.48,-0.2 -0.76,-0.2 -0.29,0 -0.54,0.06 -0.77,0.19 -0.23,0.13 -0.41,0.32 -0.54,0.56 -0.13,0.25 -0.2,0.54 -0.2,0.87 0,0.34 0.07,0.63 0.2,0.88 0.13,0.25 0.31,0.44 0.54,0.57 0.23,0.13 0.48,0.2 0.77,0.2 0.28,0 0.53,-0.07 0.76,-0.2 0.23,-0.14 0.42,-0.33 0.55,-0.58 0.13,-0.24 0.2,-0.53 0.2,-0.86zm3.31 -1.59l-0.95 0 0 3.62 -0.52 0 0 -3.62 -0.56 0 0 -0.44 0.56 0 0 -0.28c0,-0.44 0.12,-0.77 0.34,-0.97 0.23,-0.21 0.59,-0.32 1.1,-0.32l0 0.45c-0.34,0 -0.58,0.06 -0.71,0.19 -0.14,0.13 -0.21,0.35 -0.21,0.65l0 0.28 0.95 0 0 0.44zm4.49 1.38c0,0.18 -0.01,0.32 -0.02,0.41l-3.37 0c0.02,0.31 0.09,0.57 0.23,0.79 0.13,0.22 0.31,0.38 0.53,0.49 0.21,0.12 0.45,0.17 0.71,0.17 0.34,0 0.62,-0.08 0.85,-0.24 0.23,-0.17 0.38,-0.39 0.46,-0.67l0.55 0c-0.1,0.4 -0.31,0.72 -0.64,0.97 -0.32,0.26 -0.73,0.38 -1.22,0.38 -0.38,0 -0.72,-0.09 -1.03,-0.26 -0.3,-0.17 -0.54,-0.41 -0.71,-0.72 -0.17,-0.32 -0.25,-0.69 -0.25,-1.11 0,-0.42 0.08,-0.79 0.25,-1.11 0.17,-0.31 0.4,-0.56 0.71,-0.72 0.3,-0.17 0.64,-0.26 1.03,-0.26 0.39,0 0.72,0.09 1.01,0.26 0.29,0.16 0.52,0.39 0.67,0.68 0.16,0.28 0.24,0.6 0.24,0.94zm-0.53 -0.01c0,-0.3 -0.06,-0.56 -0.18,-0.77 -0.13,-0.22 -0.3,-0.38 -0.52,-0.49 -0.22,-0.11 -0.46,-0.16 -0.71,-0.16 -0.39,0 -0.72,0.12 -0.99,0.37 -0.27,0.25 -0.43,0.6 -0.46,1.05l2.86 0zm2.15 -1.37l0 2.52c0,0.25 0.05,0.42 0.15,0.51 0.09,0.1 0.26,0.14 0.49,0.14l0.48 0 0 0.45 -0.56 0c-0.36,0 -0.64,-0.08 -0.82,-0.26 -0.17,-0.17 -0.26,-0.45 -0.26,-0.84l0 -2.52 -0.57 0 0 -0.44 0.57 0 0 -1.02 0.52 0 0 1.02 1.12 0 0 0.44 -1.12 0zm5.32 -0.44l-2.41 5.97 -0.54 0 0.79 -1.93 -1.67 -4.04 0.57 0 1.39 3.47 1.33 -3.47 0.54 0zm15.2 -1.07l0 5.13 -0.52 0 0 -4.09 -1.83 4.09 -0.38 0 -1.83 -4.08 0 4.08 -0.52 0 0 -5.13 0.55 0 1.99 4.45 1.98 -4.45 0.56 0zm0.94 3.09c0,-0.41 0.09,-0.78 0.25,-1.09 0.17,-0.32 0.4,-0.56 0.69,-0.73 0.3,-0.17 0.63,-0.26 1,-0.26 0.39,0 0.72,0.09 1,0.27 0.28,0.18 0.49,0.41 0.61,0.68l0 -0.89 0.52 0 0 4.06 -0.52 0 0 -0.9c-0.13,0.28 -0.33,0.51 -0.61,0.69 -0.28,0.18 -0.62,0.27 -1,0.27 -0.37,0 -0.7,-0.09 -1,-0.26 -0.29,-0.17 -0.52,-0.42 -0.69,-0.74 -0.16,-0.31 -0.25,-0.68 -0.25,-1.1zm3.55 0.01c0,-0.33 -0.07,-0.61 -0.2,-0.86 -0.13,-0.25 -0.32,-0.44 -0.55,-0.57 -0.23,-0.14 -0.48,-0.2 -0.76,-0.2 -0.29,0 -0.54,0.06 -0.77,0.19 -0.23,0.13 -0.41,0.32 -0.54,0.56 -0.13,0.25 -0.2,0.54 -0.2,0.87 0,0.34 0.07,0.63 0.2,0.88 0.13,0.25 0.31,0.44 0.54,0.57 0.23,0.13 0.48,0.2 0.77,0.2 0.28,0 0.53,-0.07 0.76,-0.2 0.23,-0.14 0.42,-0.33 0.55,-0.58 0.13,-0.24 0.2,-0.53 0.2,-0.86zm3.61 -2.1c0.49,0 0.88,0.15 1.19,0.45 0.31,0.3 0.46,0.73 0.46,1.3l0 2.38 -0.51 0 0 -2.32c0,-0.44 -0.11,-0.78 -0.33,-1.01 -0.22,-0.23 -0.52,-0.35 -0.9,-0.35 -0.4,0 -0.71,0.13 -0.94,0.37 -0.23,0.25 -0.35,0.62 -0.35,1.1l0 2.21 -0.52 0 0 -4.06 0.52 0 0 0.69c0.13,-0.24 0.31,-0.43 0.56,-0.57 0.24,-0.13 0.51,-0.19 0.82,-0.19zm2.57 2.09c0,-0.41 0.08,-0.78 0.25,-1.09 0.16,-0.32 0.39,-0.56 0.69,-0.73 0.29,-0.17 0.62,-0.26 1,-0.26 0.38,0 0.72,0.09 1,0.27 0.28,0.18 0.48,0.41 0.6,0.68l0 -0.89 0.52 0 0 4.06 -0.52 0 0 -0.9c-0.13,0.28 -0.33,0.51 -0.61,0.69 -0.28,0.18 -0.61,0.27 -1,0.27 -0.37,0 -0.7,-0.09 -0.99,-0.26 -0.3,-0.17 -0.53,-0.42 -0.69,-0.74 -0.17,-0.31 -0.25,-0.68 -0.25,-1.1zm3.54 0.01c0,-0.33 -0.06,-0.61 -0.2,-0.86 -0.13,-0.25 -0.31,-0.44 -0.54,-0.57 -0.24,-0.14 -0.49,-0.2 -0.77,-0.2 -0.28,0 -0.54,0.06 -0.77,0.19 -0.23,0.13 -0.41,0.32 -0.54,0.56 -0.13,0.25 -0.2,0.54 -0.2,0.87 0,0.34 0.07,0.63 0.2,0.88 0.13,0.25 0.31,0.44 0.54,0.57 0.23,0.13 0.49,0.2 0.77,0.2 0.28,0 0.53,-0.07 0.77,-0.2 0.23,-0.14 0.41,-0.33 0.54,-0.58 0.14,-0.24 0.2,-0.53 0.2,-0.86zm3.41 -2.09c0.39,0 0.72,0.09 1,0.27 0.28,0.18 0.49,0.4 0.61,0.68l0 -0.89 0.52 0 0 4.16c0,0.38 -0.08,0.71 -0.24,0.99 -0.16,0.29 -0.39,0.51 -0.67,0.67 -0.29,0.15 -0.62,0.23 -0.99,0.23 -0.52,0 -0.95,-0.12 -1.29,-0.37 -0.35,-0.25 -0.56,-0.58 -0.65,-1.01l0.52 0c0.09,0.28 0.26,0.51 0.51,0.68 0.25,0.17 0.55,0.25 0.91,0.25 0.27,0 0.5,-0.06 0.71,-0.17 0.21,-0.11 0.37,-0.27 0.49,-0.49 0.12,-0.22 0.18,-0.48 0.18,-0.78l0 -1c-0.13,0.28 -0.33,0.51 -0.61,0.69 -0.28,0.18 -0.61,0.27 -1,0.27 -0.37,0 -0.7,-0.09 -1,-0.26 -0.29,-0.17 -0.52,-0.42 -0.69,-0.74 -0.16,-0.31 -0.25,-0.68 -0.25,-1.1 0,-0.41 0.09,-0.78 0.25,-1.09 0.17,-0.32 0.4,-0.56 0.69,-0.73 0.3,-0.17 0.63,-0.26 1,-0.26zm1.61 2.09c0,-0.33 -0.07,-0.61 -0.2,-0.86 -0.14,-0.25 -0.32,-0.44 -0.55,-0.57 -0.23,-0.14 -0.48,-0.2 -0.76,-0.2 -0.29,0 -0.54,0.06 -0.77,0.19 -0.23,0.13 -0.41,0.32 -0.54,0.56 -0.13,0.25 -0.2,0.54 -0.2,0.87 0,0.34 0.07,0.63 0.2,0.88 0.13,0.25 0.31,0.44 0.54,0.57 0.23,0.13 0.48,0.2 0.77,0.2 0.28,0 0.53,-0.07 0.76,-0.2 0.23,-0.14 0.41,-0.33 0.55,-0.58 0.13,-0.24 0.2,-0.53 0.2,-0.86zm5.38 -0.21c0,0.18 0,0.32 -0.01,0.41l-3.37 0c0.01,0.31 0.09,0.57 0.22,0.79 0.14,0.22 0.31,0.38 0.53,0.49 0.22,0.12 0.46,0.17 0.71,0.17 0.34,0 0.62,-0.08 0.85,-0.24 0.23,-0.17 0.39,-0.39 0.46,-0.67l0.55 0c-0.1,0.4 -0.31,0.72 -0.63,0.97 -0.33,0.26 -0.74,0.38 -1.23,0.38 -0.38,0 -0.72,-0.09 -1.02,-0.26 -0.3,-0.17 -0.54,-0.41 -0.71,-0.72 -0.17,-0.32 -0.26,-0.69 -0.26,-1.11 0,-0.42 0.09,-0.79 0.25,-1.11 0.17,-0.31 0.41,-0.56 0.71,-0.72 0.3,-0.17 0.65,-0.26 1.03,-0.26 0.39,0 0.73,0.09 1.02,0.26 0.29,0.16 0.51,0.39 0.67,0.68 0.15,0.28 0.23,0.6 0.23,0.94zm-0.53 -0.01c0.01,-0.3 -0.05,-0.56 -0.18,-0.77 -0.13,-0.22 -0.3,-0.38 -0.52,-0.49 -0.21,-0.11 -0.45,-0.16 -0.71,-0.16 -0.39,0 -0.72,0.12 -0.99,0.37 -0.27,0.25 -0.42,0.6 -0.45,1.05l2.85 0zm6.31 -1.88c0.48,0 0.87,0.15 1.17,0.45 0.3,0.3 0.45,0.73 0.45,1.3l0 2.38 -0.52 0 0 -2.32c0,-0.44 -0.1,-0.78 -0.32,-1.01 -0.21,-0.23 -0.5,-0.35 -0.87,-0.35 -0.38,0 -0.68,0.13 -0.91,0.38 -0.23,0.25 -0.34,0.62 -0.34,1.1l0 2.2 -0.51 0 0 -2.32c0,-0.44 -0.11,-0.78 -0.32,-1.01 -0.22,-0.23 -0.51,-0.35 -0.88,-0.35 -0.38,0 -0.69,0.13 -0.92,0.38 -0.22,0.25 -0.34,0.62 -0.34,1.1l0 2.2 -0.52 0 0 -4.06 0.52 0 0 0.7c0.13,-0.25 0.31,-0.44 0.55,-0.58 0.24,-0.13 0.51,-0.19 0.8,-0.19 0.35,0 0.66,0.08 0.92,0.25 0.27,0.17 0.46,0.42 0.58,0.74 0.11,-0.32 0.3,-0.56 0.56,-0.74 0.27,-0.17 0.57,-0.25 0.9,-0.25zm6.44 1.89c0,0.18 0,0.32 -0.01,0.41l-3.37 0c0.01,0.31 0.09,0.57 0.22,0.79 0.14,0.22 0.31,0.38 0.53,0.49 0.22,0.12 0.46,0.17 0.71,0.17 0.34,0 0.62,-0.08 0.85,-0.24 0.23,-0.17 0.39,-0.39 0.46,-0.67l0.55 0c-0.1,0.4 -0.31,0.72 -0.63,0.97 -0.33,0.26 -0.74,0.38 -1.23,0.38 -0.38,0 -0.72,-0.09 -1.02,-0.26 -0.3,-0.17 -0.54,-0.41 -0.71,-0.72 -0.17,-0.32 -0.26,-0.69 -0.26,-1.11 0,-0.42 0.09,-0.79 0.25,-1.11 0.17,-0.31 0.41,-0.56 0.71,-0.72 0.3,-0.17 0.65,-0.26 1.03,-0.26 0.39,0 0.73,0.09 1.02,0.26 0.29,0.16 0.51,0.39 0.67,0.68 0.15,0.28 0.23,0.6 0.23,0.94zm-0.53 -0.01c0.01,-0.3 -0.05,-0.56 -0.18,-0.77 -0.13,-0.22 -0.3,-0.38 -0.52,-0.49 -0.21,-0.11 -0.45,-0.16 -0.71,-0.16 -0.39,0 -0.72,0.12 -0.99,0.37 -0.27,0.25 -0.42,0.6 -0.45,1.05l2.85 0zm3.38 -1.88c0.49,0 0.89,0.15 1.19,0.45 0.31,0.3 0.47,0.73 0.47,1.3l0 2.38 -0.52 0 0 -2.32c0,-0.44 -0.11,-0.78 -0.33,-1.01 -0.22,-0.23 -0.52,-0.35 -0.9,-0.35 -0.39,0 -0.71,0.13 -0.94,0.37 -0.23,0.25 -0.35,0.62 -0.35,1.1l0 2.21 -0.52 0 0 -4.06 0.52 0 0 0.69c0.13,-0.24 0.32,-0.43 0.56,-0.57 0.24,-0.13 0.52,-0.19 0.82,-0.19zm3.48 0.51l0 2.52c0,0.25 0.05,0.42 0.15,0.51 0.09,0.1 0.26,0.14 0.49,0.14l0.48 0 0 0.45 -0.56 0c-0.37,0 -0.64,-0.08 -0.82,-0.26 -0.17,-0.17 -0.26,-0.45 -0.26,-0.84l0 -2.52 -0.57 0 0 -0.44 0.57 0 0 -1.02 0.52 0 0 1.02 1.12 0 0 0.44 -1.12 0zm-51.66 3.62l-0.71 -0.72c-0.25,0.28 -0.52,0.48 -0.81,0.61 -0.29,0.13 -0.61,0.2 -0.97,0.2 -0.35,0 -0.66,-0.07 -0.93,-0.2 -0.26,-0.13 -0.47,-0.31 -0.62,-0.55 -0.15,-0.24 -0.22,-0.51 -0.22,-0.83 0,-0.36 0.1,-0.68 0.31,-0.95 0.21,-0.28 0.51,-0.49 0.91,-0.64 -0.17,-0.2 -0.3,-0.38 -0.38,-0.54 -0.07,-0.17 -0.11,-0.35 -0.11,-0.54 0,-0.33 0.11,-0.6 0.35,-0.81 0.24,-0.2 0.56,-0.31 0.95,-0.31 0.38,0 0.68,0.11 0.91,0.32 0.23,0.22 0.34,0.49 0.33,0.84l-0.52 0c0,-0.23 -0.07,-0.4 -0.21,-0.53 -0.14,-0.13 -0.32,-0.2 -0.53,-0.2 -0.23,0 -0.41,0.07 -0.55,0.19 -0.14,0.13 -0.21,0.29 -0.21,0.49 0,0.16 0.04,0.31 0.13,0.46 0.08,0.15 0.22,0.33 0.41,0.53l1.71 1.73c0.07,-0.09 0.16,-0.24 0.28,-0.44l0.48 -0.8 0.55 0 -0.56 0.97c-0.13,0.24 -0.27,0.44 -0.4,0.63l1.08 1.09 -0.67 0zm-2.49 -0.36c0.29,0 0.55,-0.06 0.78,-0.17 0.23,-0.12 0.45,-0.3 0.66,-0.54l-1.66 -1.68c-0.69,0.25 -1.03,0.67 -1.03,1.25 0,0.22 0.05,0.41 0.16,0.58 0.1,0.17 0.25,0.31 0.44,0.41 0.19,0.1 0.4,0.15 0.65,0.15zm-8.62 6.21c0,-0.51 0.11,-0.97 0.33,-1.37 0.23,-0.41 0.53,-0.72 0.92,-0.95 0.38,-0.22 0.81,-0.34 1.29,-0.34 0.58,0 1.08,0.14 1.49,0.42 0.41,0.27 0.71,0.66 0.9,1.16l-0.61 0c-0.14,-0.35 -0.37,-0.63 -0.68,-0.83 -0.3,-0.19 -0.67,-0.29 -1.1,-0.29 -0.38,0 -0.72,0.09 -1.03,0.26 -0.3,0.18 -0.54,0.44 -0.72,0.77 -0.17,0.34 -0.26,0.73 -0.26,1.17 0,0.44 0.09,0.82 0.26,1.16 0.18,0.33 0.42,0.58 0.72,0.76 0.31,0.18 0.65,0.27 1.03,0.27 0.43,0 0.8,-0.1 1.1,-0.29 0.31,-0.2 0.54,-0.47 0.68,-0.82l0.61 0c-0.19,0.5 -0.49,0.88 -0.9,1.15 -0.42,0.28 -0.92,0.41 -1.49,0.41 -0.48,0 -0.91,-0.11 -1.29,-0.34 -0.39,-0.22 -0.69,-0.53 -0.92,-0.94 -0.22,-0.4 -0.33,-0.85 -0.33,-1.36zm7.74 2.66c-0.38,0 -0.72,-0.09 -1.03,-0.26 -0.3,-0.17 -0.54,-0.41 -0.72,-0.73 -0.17,-0.31 -0.26,-0.68 -0.26,-1.1 0,-0.42 0.09,-0.79 0.27,-1.1 0.17,-0.32 0.42,-0.56 0.72,-0.73 0.31,-0.17 0.66,-0.26 1.04,-0.26 0.38,0 0.73,0.09 1.03,0.26 0.31,0.17 0.56,0.41 0.73,0.73 0.18,0.31 0.27,0.68 0.27,1.1 0,0.42 -0.09,0.78 -0.27,1.1 -0.18,0.32 -0.42,0.56 -0.74,0.73 -0.31,0.17 -0.66,0.26 -1.04,0.26zm0 -0.46c0.27,0 0.52,-0.06 0.75,-0.18 0.22,-0.12 0.41,-0.3 0.55,-0.55 0.14,-0.24 0.21,-0.54 0.21,-0.9 0,-0.36 -0.07,-0.66 -0.21,-0.9 -0.13,-0.25 -0.32,-0.43 -0.55,-0.55 -0.22,-0.13 -0.47,-0.19 -0.74,-0.19 -0.27,0 -0.51,0.06 -0.74,0.19 -0.23,0.12 -0.41,0.3 -0.55,0.55 -0.14,0.24 -0.2,0.54 -0.2,0.9 0,0.36 0.06,0.66 0.2,0.9 0.14,0.25 0.32,0.43 0.54,0.55 0.23,0.12 0.48,0.18 0.74,0.18zm4.9 -3.73c0.49,0 0.88,0.15 1.19,0.45 0.31,0.29 0.46,0.73 0.46,1.3l0 2.38 -0.51 0 0 -2.32c0,-0.44 -0.11,-0.78 -0.33,-1.01 -0.22,-0.23 -0.52,-0.35 -0.91,-0.35 -0.39,0 -0.7,0.12 -0.93,0.37 -0.23,0.25 -0.35,0.61 -0.35,1.09l0 2.22 -0.52 0 0 -4.06 0.52 0 0 0.69c0.13,-0.25 0.31,-0.44 0.56,-0.57 0.24,-0.13 0.51,-0.19 0.82,-0.19zm4.2 4.19c-0.46,0 -0.84,-0.11 -1.14,-0.33 -0.29,-0.21 -0.46,-0.5 -0.49,-0.88l0.53 0c0.03,0.23 0.13,0.42 0.32,0.56 0.2,0.14 0.45,0.21 0.77,0.21 0.29,0 0.51,-0.07 0.67,-0.2 0.16,-0.14 0.24,-0.3 0.24,-0.5 0,-0.14 -0.04,-0.25 -0.13,-0.34 -0.09,-0.09 -0.21,-0.16 -0.34,-0.21 -0.14,-0.06 -0.32,-0.11 -0.56,-0.17 -0.3,-0.08 -0.54,-0.16 -0.73,-0.24 -0.19,-0.08 -0.35,-0.2 -0.48,-0.35 -0.13,-0.16 -0.2,-0.37 -0.2,-0.63 0,-0.2 0.06,-0.38 0.18,-0.55 0.12,-0.17 0.29,-0.3 0.51,-0.4 0.21,-0.1 0.46,-0.15 0.74,-0.15 0.44,0 0.79,0.11 1.06,0.33 0.26,0.22 0.41,0.52 0.43,0.91l-0.52 0c-0.02,-0.24 -0.11,-0.43 -0.28,-0.57 -0.17,-0.15 -0.41,-0.22 -0.71,-0.22 -0.26,0 -0.47,0.06 -0.63,0.18 -0.17,0.13 -0.25,0.28 -0.25,0.46 0,0.16 0.05,0.29 0.15,0.39 0.09,0.1 0.21,0.18 0.36,0.24 0.14,0.06 0.33,0.12 0.58,0.19 0.29,0.08 0.52,0.16 0.69,0.23 0.18,0.08 0.33,0.18 0.45,0.33 0.12,0.14 0.19,0.33 0.19,0.57 0,0.22 -0.06,0.41 -0.17,0.58 -0.12,0.17 -0.29,0.31 -0.5,0.41 -0.22,0.1 -0.46,0.15 -0.74,0.15zm5.91 -4.12l0 4.06 -0.52 0 0 -0.72c-0.12,0.26 -0.3,0.45 -0.55,0.58 -0.25,0.14 -0.53,0.21 -0.83,0.21 -0.49,0 -0.88,-0.16 -1.19,-0.45 -0.31,-0.3 -0.46,-0.74 -0.46,-1.31l0 -2.37 0.51 0 0 2.31c0,0.44 0.11,0.78 0.33,1.01 0.22,0.24 0.52,0.35 0.9,0.35 0.4,0 0.71,-0.12 0.94,-0.37 0.23,-0.25 0.35,-0.61 0.35,-1.09l0 -2.21 0.52 0zm1.71 -1.44l0 5.5 -0.52 0 0 -5.5 0.52 0zm1.86 1.88l0 2.52c0,0.25 0.05,0.42 0.14,0.51 0.09,0.09 0.26,0.14 0.5,0.14l0.47 0 0 0.45 -0.55 0c-0.37,0 -0.64,-0.09 -0.82,-0.26 -0.18,-0.17 -0.27,-0.45 -0.27,-0.84l0 -2.52 -0.56 0 0 -0.44 0.56 0 0 -1.02 0.53 0 0 1.02 1.11 0 0 0.44 -1.11 0zm1.73 1.58c0,-0.41 0.08,-0.78 0.25,-1.09 0.17,-0.32 0.4,-0.56 0.69,-0.73 0.3,-0.17 0.63,-0.26 1,-0.26 0.39,0 0.72,0.09 1,0.27 0.28,0.18 0.48,0.4 0.61,0.68l0 -0.89 0.52 0 0 4.06 -0.52 0 0 -0.9c-0.13,0.28 -0.34,0.51 -0.62,0.69 -0.28,0.18 -0.61,0.27 -1,0.27 -0.36,0 -0.69,-0.09 -0.99,-0.26 -0.29,-0.18 -0.52,-0.42 -0.69,-0.74 -0.17,-0.32 -0.25,-0.68 -0.25,-1.1zm3.55 0.01c0,-0.33 -0.07,-0.62 -0.2,-0.86 -0.14,-0.25 -0.32,-0.44 -0.55,-0.58 -0.23,-0.13 -0.49,-0.2 -0.76,-0.2 -0.29,0 -0.55,0.07 -0.78,0.2 -0.22,0.13 -0.4,0.31 -0.54,0.56 -0.13,0.24 -0.19,0.53 -0.19,0.87 0,0.33 0.06,0.62 0.19,0.87 0.14,0.26 0.32,0.45 0.54,0.58 0.23,0.13 0.49,0.19 0.78,0.19 0.27,0 0.53,-0.06 0.76,-0.2 0.23,-0.13 0.41,-0.32 0.55,-0.57 0.13,-0.25 0.2,-0.53 0.2,-0.86zm3.61 -2.1c0.48,0 0.88,0.15 1.19,0.45 0.3,0.29 0.46,0.73 0.46,1.3l0 2.38 -0.51 0 0 -2.32c0,-0.44 -0.11,-0.78 -0.34,-1.01 -0.22,-0.23 -0.52,-0.35 -0.9,-0.35 -0.39,0 -0.7,0.12 -0.94,0.37 -0.23,0.25 -0.34,0.61 -0.34,1.09l0 2.22 -0.52 0 0 -4.06 0.52 0 0 0.69c0.12,-0.25 0.31,-0.44 0.55,-0.57 0.25,-0.13 0.52,-0.19 0.83,-0.19zm2.56 2.1c0,-0.42 0.09,-0.79 0.26,-1.1 0.16,-0.32 0.4,-0.56 0.69,-0.73 0.3,-0.17 0.64,-0.26 1.02,-0.26 0.5,0 0.92,0.12 1.24,0.37 0.32,0.25 0.53,0.59 0.63,1.01l-0.56 0c-0.07,-0.29 -0.22,-0.52 -0.45,-0.68 -0.23,-0.17 -0.52,-0.25 -0.86,-0.25 -0.27,0 -0.52,0.06 -0.73,0.18 -0.22,0.13 -0.39,0.31 -0.52,0.56 -0.13,0.24 -0.19,0.54 -0.19,0.9 0,0.36 0.06,0.66 0.19,0.91 0.13,0.24 0.3,0.43 0.52,0.55 0.21,0.13 0.46,0.19 0.73,0.19 0.34,0 0.63,-0.08 0.86,-0.25 0.23,-0.17 0.38,-0.4 0.45,-0.69l0.56 0c-0.1,0.41 -0.31,0.75 -0.63,1 -0.33,0.25 -0.74,0.38 -1.24,0.38 -0.38,0 -0.72,-0.09 -1.02,-0.26 -0.29,-0.17 -0.53,-0.41 -0.69,-0.73 -0.17,-0.31 -0.26,-0.68 -0.26,-1.1zm8.14 -2.03l-2.41 5.97 -0.54 0 0.79 -1.93 -1.67 -4.04 0.58 0 1.38 3.46 1.34 -3.46 0.53 0z"/>
  </g>
 </g>
</svg>
